<svg xmlns="http://www.w3.org/2000/svg" xmlns:xlink="http://www.w3.org/1999/xlink" width="300" zoomAndPan="magnify" viewBox="0 0 224.87999 225" height="300" preserveAspectRatio="xMidYMid meet" version="1.0"><defs><g/><clipPath id="3b3d28285f"><path d="M 0 0.0585938 L 224.761719 0.0585938 L 224.761719 224.9375 L 0 224.9375 Z M 0 0.0585938 " clip-rule="nonzero"/></clipPath><clipPath id="d009e66568"><path d="M 10.789062 12.59375 L 40 12.59375 L 40 42 L 10.789062 42 Z M 10.789062 12.59375 " clip-rule="nonzero"/></clipPath><clipPath id="32468846d2"><path d="M 181 12.59375 L 210.933594 12.59375 L 210.933594 42 L 181 42 Z M 181 12.59375 " clip-rule="nonzero"/></clipPath><clipPath id="308fcf951c"><path d="M 39 12.59375 L 183 12.59375 L 183 19 L 39 19 Z M 39 12.59375 " clip-rule="nonzero"/></clipPath><clipPath id="a6597b8b62"><path d="M 10.789062 40 L 17 40 L 17 185 L 10.789062 185 Z M 10.789062 40 " clip-rule="nonzero"/></clipPath><clipPath id="645434161d"><path d="M 39 206 L 183 206 L 183 212.734375 L 39 212.734375 Z M 39 206 " clip-rule="nonzero"/></clipPath><clipPath id="583724ff07"><path d="M 10.789062 183 L 40 183 L 40 212.734375 L 10.789062 212.734375 Z M 10.789062 183 " clip-rule="nonzero"/></clipPath><clipPath id="b5e599c6aa"><path d="M 204 40 L 210.933594 40 L 210.933594 185 L 204 185 Z M 204 40 " clip-rule="nonzero"/></clipPath><clipPath id="d45e31be1e"><path d="M 181 183 L 210.933594 183 L 210.933594 212.734375 L 181 212.734375 Z M 181 183 " clip-rule="nonzero"/></clipPath><clipPath id="7e2c9a9b86"><path d="M 133 67 L 155.699219 67 L 155.699219 102 L 133 102 Z M 133 67 " clip-rule="nonzero"/></clipPath></defs><g clip-path="url(#3b3d28285f)"><path fill="#ffffff" d="M 0 0.0585938 L 224.878906 0.0585938 L 224.878906 232.4375 L 0 232.4375 Z M 0 0.0585938 " fill-opacity="1" fill-rule="nonzero"/><path fill="#ffffff" d="M 0 0.0585938 L 224.878906 0.0585938 L 224.878906 224.941406 L 0 224.941406 Z M 0 0.0585938 " fill-opacity="1" fill-rule="nonzero"/><path fill="#eb6563" d="M 0 0.0585938 L 224.878906 0.0585938 L 224.878906 224.941406 L 0 224.941406 Z M 0 0.0585938 " fill-opacity="1" fill-rule="nonzero"/></g><g clip-path="url(#d009e66568)"><path fill="#ffffff" d="M 16.769531 39.664062 C 16.769531 28.140625 26.339844 18.574219 37.863281 18.574219 L 39.894531 18.574219 L 39.894531 12.59375 L 37.863281 12.59375 C 23.03125 12.59375 10.789062 24.832031 10.789062 39.664062 L 10.789062 41.699219 L 16.769531 41.699219 Z M 16.769531 39.664062 " fill-opacity="1" fill-rule="nonzero"/></g><g clip-path="url(#32468846d2)"><path fill="#ffffff" d="M 183.863281 12.59375 L 181.828125 12.59375 L 181.828125 18.574219 L 183.863281 18.574219 C 195.382812 18.574219 204.953125 28.140625 204.953125 39.664062 L 204.953125 41.699219 L 210.933594 41.699219 L 210.933594 39.664062 C 210.933594 24.832031 198.695312 12.59375 183.863281 12.59375 Z M 183.863281 12.59375 " fill-opacity="1" fill-rule="nonzero"/></g><g clip-path="url(#308fcf951c)"><path fill="#ffffff" d="M 39.097656 12.59375 L 182.625 12.59375 L 182.625 18.574219 L 39.097656 18.574219 Z M 39.097656 12.59375 " fill-opacity="1" fill-rule="nonzero"/></g><g clip-path="url(#a6597b8b62)"><path fill="#ffffff" d="M 10.789062 40.898438 L 16.769531 40.898438 L 16.769531 184.429688 L 10.789062 184.429688 Z M 10.789062 40.898438 " fill-opacity="1" fill-rule="nonzero"/></g><g clip-path="url(#645434161d)"><path fill="#ffffff" d="M 39.097656 206.753906 L 182.625 206.753906 L 182.625 212.734375 L 39.097656 212.734375 Z M 39.097656 206.753906 " fill-opacity="1" fill-rule="nonzero"/></g><g clip-path="url(#583724ff07)"><path fill="#ffffff" d="M 37.863281 206.753906 C 26.339844 206.753906 16.769531 197.1875 16.769531 185.664062 L 16.769531 183.632812 L 10.789062 183.632812 L 10.789062 185.664062 C 10.789062 200.496094 23.03125 212.734375 37.863281 212.734375 L 39.894531 212.734375 L 39.894531 206.753906 Z M 37.863281 206.753906 " fill-opacity="1" fill-rule="nonzero"/></g><g clip-path="url(#b5e599c6aa)"><path fill="#ffffff" d="M 204.953125 40.898438 L 210.933594 40.898438 L 210.933594 184.429688 L 204.953125 184.429688 Z M 204.953125 40.898438 " fill-opacity="1" fill-rule="nonzero"/></g><g clip-path="url(#d45e31be1e)"><path fill="#ffffff" d="M 210.933594 185.664062 L 210.933594 183.632812 L 204.953125 183.632812 L 204.953125 185.664062 C 204.953125 197.1875 195.382812 206.753906 183.863281 206.753906 L 181.828125 206.753906 L 181.828125 212.734375 L 183.863281 212.734375 C 198.695312 212.734375 210.933594 200.496094 210.933594 185.664062 Z M 210.933594 185.664062 " fill-opacity="1" fill-rule="nonzero"/></g><path fill="#fafdfd" d="M 97.664062 134.65625 C 96.96875 134.65625 96.277344 134.65625 95.582031 134.542969 C 86.914062 133.621094 79.976562 126.589844 79.167969 117.832031 C 78.589844 111.839844 81.019531 105.847656 85.640625 101.929688 L 95.234375 91.902344 C 99.28125 87.636719 104.714844 85.332031 110.492188 85.332031 C 116.273438 85.332031 121.707031 87.636719 125.75 91.902344 L 135.808594 102.390625 C 140.199219 106.421875 142.394531 112.070312 141.703125 118.0625 C 140.777344 126.707031 133.84375 133.621094 125.289062 134.542969 C 121.011719 135.003906 116.851562 134.082031 113.265625 131.777344 C 111.535156 130.625 109.335938 130.625 107.601562 131.777344 C 104.597656 133.621094 101.246094 134.65625 97.664062 134.65625 Z M 87.375 103.542969 C 87.375 103.65625 87.257812 103.65625 87.257812 103.65625 C 83.214844 107.113281 81.019531 112.300781 81.59375 117.601562 C 82.289062 125.207031 88.300781 131.316406 95.929688 132.121094 C 99.628906 132.582031 103.328125 131.660156 106.449219 129.703125 C 108.875 128.089844 112.113281 128.089844 114.65625 129.703125 C 117.773438 131.660156 121.472656 132.582031 125.171875 132.121094 C 132.6875 131.316406 138.8125 125.207031 139.507812 117.714844 C 140.085938 112.53125 138.121094 107.460938 134.1875 103.886719 C 134.074219 103.886719 134.074219 103.773438 134.074219 103.65625 L 124.132812 93.285156 C 120.550781 89.597656 115.695312 87.523438 110.492188 87.523438 C 105.292969 87.523438 100.4375 89.597656 96.851562 93.398438 Z M 87.375 103.542969 " fill-opacity="1" fill-rule="nonzero"/><path fill="#fafdfd" d="M 120.664062 83.488281 C 120.085938 83.488281 119.507812 83.375 118.929688 83.257812 C 116.15625 82.449219 114.191406 79.914062 113.265625 75.996094 C 112.457031 72.425781 112.6875 67.929688 113.960938 63.550781 C 115.230469 59.171875 117.429688 55.367188 120.085938 52.71875 C 122.863281 49.953125 125.980469 48.800781 128.757812 49.605469 C 131.53125 50.414062 133.496094 52.949219 134.421875 56.867188 C 135.230469 60.4375 135 64.933594 133.726562 69.3125 C 132.457031 73.691406 130.257812 77.496094 127.601562 80.144531 C 125.289062 82.335938 122.976562 83.488281 120.664062 83.488281 Z M 126.90625 51.679688 C 125.289062 51.679688 123.4375 52.601562 121.707031 54.332031 C 119.277344 56.636719 117.429688 60.207031 116.273438 64.242188 C 115.117188 68.277344 114.886719 72.195312 115.578125 75.535156 C 116.273438 78.53125 117.660156 80.492188 119.625 81.066406 C 121.589844 81.644531 123.785156 80.722656 125.980469 78.53125 C 128.410156 76.226562 130.257812 72.65625 131.414062 68.621094 C 132.570312 64.589844 132.800781 60.667969 132.109375 57.328125 C 131.414062 54.332031 130.027344 52.371094 128.0625 51.796875 C 127.601562 51.796875 127.253906 51.679688 126.90625 51.679688 Z M 126.90625 51.679688 " fill-opacity="1" fill-rule="nonzero"/><g clip-path="url(#7e2c9a9b86)"><path fill="#fafdfd" d="M 141.125 101.464844 C 140.546875 101.464844 139.96875 101.351562 139.390625 101.234375 C 136.617188 100.429688 134.652344 97.894531 133.726562 93.976562 C 132.917969 90.402344 133.148438 85.910156 134.421875 81.527344 C 137.195312 72.078125 143.667969 65.972656 149.101562 67.585938 C 151.875 68.390625 153.839844 70.925781 154.765625 74.84375 C 155.574219 78.417969 155.34375 82.914062 154.070312 87.292969 C 152.800781 91.671875 150.601562 95.472656 147.945312 98.125 C 145.863281 100.3125 143.4375 101.464844 141.125 101.464844 Z M 147.367188 69.660156 C 143.4375 69.660156 138.695312 74.960938 136.617188 82.21875 C 135.460938 86.253906 135.230469 90.171875 135.921875 93.515625 C 136.617188 96.511719 138.003906 98.46875 139.96875 99.046875 C 141.933594 99.621094 144.128906 98.699219 146.328125 96.511719 C 148.753906 94.207031 150.601562 90.632812 151.757812 86.601562 C 152.914062 82.566406 153.144531 78.648438 152.453125 75.304688 C 151.757812 72.308594 150.371094 70.351562 148.40625 69.773438 C 148.175781 69.773438 147.714844 69.660156 147.367188 69.660156 Z M 147.367188 69.660156 " fill-opacity="1" fill-rule="nonzero"/></g><path fill="#fafdfd" d="M 100.785156 83.488281 C 98.472656 83.488281 96.160156 82.335938 93.964844 80.144531 C 91.304688 77.496094 89.109375 73.691406 87.835938 69.3125 C 86.566406 64.933594 86.335938 60.554688 87.144531 56.867188 C 88.070312 52.949219 90.035156 50.414062 92.808594 49.605469 C 95.582031 48.800781 98.585938 49.953125 101.476562 52.71875 C 104.136719 55.367188 106.332031 59.171875 107.601562 63.550781 C 108.875 67.929688 109.105469 72.308594 108.296875 75.996094 C 107.371094 79.914062 105.40625 82.449219 102.632812 83.257812 C 101.941406 83.488281 101.363281 83.488281 100.785156 83.488281 Z M 94.542969 51.679688 C 94.195312 51.679688 93.734375 51.679688 93.386719 51.796875 C 91.421875 52.371094 90.035156 54.332031 89.339844 57.328125 C 88.648438 60.554688 88.878906 64.589844 90.035156 68.621094 C 91.191406 72.65625 93.15625 76.113281 95.464844 78.53125 C 97.664062 80.722656 99.972656 81.644531 101.824219 81.066406 C 103.789062 80.492188 105.175781 78.53125 105.871094 75.535156 C 106.5625 72.308594 106.332031 68.277344 105.175781 64.242188 C 104.019531 60.207031 102.054688 56.75 99.742188 54.332031 C 98.007812 52.601562 96.277344 51.679688 94.542969 51.679688 Z M 94.542969 51.679688 " fill-opacity="1" fill-rule="nonzero"/><path fill="#fafdfd" d="M 80.324219 101.464844 C 78.011719 101.464844 75.699219 100.3125 73.503906 98.125 C 70.84375 95.472656 68.648438 91.671875 67.378906 87.292969 C 66.105469 82.914062 65.875 78.53125 66.683594 74.84375 C 67.609375 70.925781 69.574219 68.390625 72.347656 67.585938 C 77.898438 65.972656 84.371094 72.078125 87.027344 81.527344 C 88.300781 85.910156 88.53125 90.289062 87.722656 93.976562 C 86.796875 97.894531 84.832031 100.429688 82.058594 101.234375 C 81.480469 101.351562 80.902344 101.464844 80.324219 101.464844 Z M 74.082031 69.660156 C 73.734375 69.660156 73.273438 69.660156 72.925781 69.773438 C 70.960938 70.351562 69.574219 72.308594 68.878906 75.304688 C 68.1875 78.53125 68.417969 82.566406 69.574219 86.601562 C 70.730469 90.632812 72.695312 94.089844 75.007812 96.511719 C 77.203125 98.699219 79.515625 99.621094 81.363281 99.046875 C 83.328125 98.46875 84.714844 96.511719 85.410156 93.515625 C 86.105469 90.289062 85.871094 86.253906 84.714844 82.21875 C 82.75 75.074219 78.011719 69.660156 74.082031 69.660156 Z M 74.082031 69.660156 " fill-opacity="1" fill-rule="nonzero"/><g fill="#ffffff" fill-opacity="1"><g transform="translate(39.357249, 167.941355)"><g><path d="M 3.5625 0 L 1.4375 0 L 1.4375 -11.09375 L 3.953125 -11.09375 L 8.40625 -3.953125 L 8.609375 -3.984375 L 8.609375 -11.09375 L 10.71875 -11.09375 L 10.71875 0 L 8.46875 0 L 3.75 -7.640625 L 3.5625 -7.609375 Z M 3.5625 0 "/></g></g></g><g fill="#ffffff" fill-opacity="1"><g transform="translate(51.524621, 167.941355)"><g><path d="M 4.859375 0.15625 C 4.046875 0.15625 3.328125 -0.0078125 2.703125 -0.34375 C 2.085938 -0.675781 1.609375 -1.164062 1.265625 -1.8125 C 0.921875 -2.46875 0.75 -3.257812 0.75 -4.1875 C 0.75 -5.101562 0.921875 -5.882812 1.265625 -6.53125 C 1.609375 -7.1875 2.085938 -7.679688 2.703125 -8.015625 C 3.328125 -8.359375 4.046875 -8.53125 4.859375 -8.53125 C 5.679688 -8.53125 6.398438 -8.359375 7.015625 -8.015625 C 7.640625 -7.679688 8.125 -7.1875 8.46875 -6.53125 C 8.8125 -5.882812 8.984375 -5.101562 8.984375 -4.1875 C 8.984375 -3.257812 8.8125 -2.46875 8.46875 -1.8125 C 8.125 -1.164062 7.640625 -0.675781 7.015625 -0.34375 C 6.398438 -0.0078125 5.679688 0.15625 4.859375 0.15625 Z M 4.859375 -1.625 C 6.160156 -1.625 6.8125 -2.476562 6.8125 -4.1875 C 6.8125 -5.070312 6.644531 -5.71875 6.3125 -6.125 C 5.976562 -6.539062 5.492188 -6.75 4.859375 -6.75 C 3.566406 -6.75 2.921875 -5.894531 2.921875 -4.1875 C 2.921875 -2.476562 3.566406 -1.625 4.859375 -1.625 Z M 4.859375 -1.625 "/></g></g></g><g fill="#ffffff" fill-opacity="1"><g transform="translate(61.255483, 167.941355)"><g/></g></g><g fill="#ffffff" fill-opacity="1"><g transform="translate(64.921635, 167.941355)"><g><path d="M 3.640625 0 L 1.4375 0 L 1.4375 -11.09375 L 3.640625 -11.09375 Z M 3.640625 0 "/></g></g></g><g fill="#ffffff" fill-opacity="1"><g transform="translate(70.007186, 167.941355)"><g><path d="M 1.203125 0 L 1.203125 -8.375 L 3.21875 -8.375 L 3.21875 -7.25 L 3.390625 -7.21875 C 3.660156 -7.664062 3.976562 -7.992188 4.34375 -8.203125 C 4.707031 -8.421875 5.175781 -8.53125 5.75 -8.53125 C 6.382812 -8.53125 6.894531 -8.40625 7.28125 -8.15625 C 7.664062 -7.90625 7.945312 -7.539062 8.125 -7.0625 L 8.28125 -7.0625 C 8.539062 -7.5625 8.875 -7.929688 9.28125 -8.171875 C 9.6875 -8.410156 10.191406 -8.53125 10.796875 -8.53125 C 12.535156 -8.53125 13.40625 -7.5625 13.40625 -5.625 L 13.40625 0 L 11.296875 0 L 11.296875 -5.359375 C 11.296875 -5.859375 11.195312 -6.210938 11 -6.421875 C 10.8125 -6.640625 10.507812 -6.75 10.09375 -6.75 C 8.9375 -6.75 8.359375 -5.976562 8.359375 -4.4375 L 8.359375 0 L 6.25 0 L 6.25 -5.359375 C 6.25 -5.859375 6.148438 -6.210938 5.953125 -6.421875 C 5.765625 -6.640625 5.457031 -6.75 5.03125 -6.75 C 4.488281 -6.75 4.066406 -6.566406 3.765625 -6.203125 C 3.460938 -5.847656 3.3125 -5.273438 3.3125 -4.484375 L 3.3125 0 Z M 1.203125 0 "/></g></g></g><g fill="#ffffff" fill-opacity="1"><g transform="translate(84.489623, 167.941355)"><g><path d="M 3.265625 0.15625 C 2.722656 0.15625 2.253906 0.0546875 1.859375 -0.140625 C 1.472656 -0.335938 1.171875 -0.625 0.953125 -1 C 0.742188 -1.382812 0.640625 -1.847656 0.640625 -2.390625 C 0.640625 -2.878906 0.742188 -3.289062 0.953125 -3.625 C 1.171875 -3.96875 1.5 -4.242188 1.9375 -4.453125 C 2.382812 -4.671875 2.96875 -4.835938 3.6875 -4.953125 C 4.1875 -5.035156 4.566406 -5.125 4.828125 -5.21875 C 5.085938 -5.3125 5.265625 -5.421875 5.359375 -5.546875 C 5.453125 -5.671875 5.5 -5.828125 5.5 -6.015625 C 5.5 -6.285156 5.40625 -6.488281 5.21875 -6.625 C 5.03125 -6.769531 4.71875 -6.84375 4.28125 -6.84375 C 3.8125 -6.84375 3.367188 -6.738281 2.953125 -6.53125 C 2.535156 -6.320312 2.171875 -6.046875 1.859375 -5.703125 L 1.703125 -5.703125 L 0.828125 -7.03125 C 1.253906 -7.507812 1.769531 -7.878906 2.375 -8.140625 C 2.988281 -8.398438 3.660156 -8.53125 4.390625 -8.53125 C 5.492188 -8.53125 6.289062 -8.296875 6.78125 -7.828125 C 7.28125 -7.359375 7.53125 -6.691406 7.53125 -5.828125 L 7.53125 -2.1875 C 7.53125 -1.8125 7.695312 -1.625 8.03125 -1.625 C 8.15625 -1.625 8.28125 -1.644531 8.40625 -1.6875 L 8.515625 -1.65625 L 8.65625 -0.203125 C 8.539062 -0.117188 8.378906 -0.0507812 8.171875 0 C 7.960938 0.0390625 7.738281 0.0625 7.5 0.0625 C 6.988281 0.0625 6.59375 -0.03125 6.3125 -0.21875 C 6.03125 -0.414062 5.832031 -0.71875 5.71875 -1.125 L 5.5625 -1.140625 C 5.144531 -0.273438 4.378906 0.15625 3.265625 0.15625 Z M 3.9375 -1.40625 C 4.414062 -1.40625 4.800781 -1.566406 5.09375 -1.890625 C 5.382812 -2.222656 5.53125 -2.679688 5.53125 -3.265625 L 5.53125 -4.109375 L 5.390625 -4.140625 C 5.265625 -4.046875 5.097656 -3.960938 4.890625 -3.890625 C 4.679688 -3.816406 4.390625 -3.75 4.015625 -3.6875 C 3.554688 -3.613281 3.222656 -3.484375 3.015625 -3.296875 C 2.816406 -3.109375 2.71875 -2.847656 2.71875 -2.515625 C 2.71875 -2.148438 2.820312 -1.875 3.03125 -1.6875 C 3.25 -1.5 3.550781 -1.40625 3.9375 -1.40625 Z M 3.9375 -1.40625 "/></g></g></g><g fill="#ffffff" fill-opacity="1"><g transform="translate(93.317227, 167.941355)"><g><path d="M 4.34375 3.546875 C 2.957031 3.546875 1.9375 3.34375 1.28125 2.9375 C 0.625 2.539062 0.296875 1.976562 0.296875 1.25 C 0.296875 0.8125 0.4375 0.453125 0.71875 0.171875 C 1 -0.109375 1.398438 -0.296875 1.921875 -0.390625 L 1.921875 -0.546875 C 1.640625 -0.722656 1.4375 -0.914062 1.3125 -1.125 C 1.1875 -1.332031 1.125 -1.578125 1.125 -1.859375 C 1.125 -2.535156 1.5625 -2.988281 2.4375 -3.21875 L 2.4375 -3.375 C 1.988281 -3.632812 1.648438 -3.953125 1.421875 -4.328125 C 1.191406 -4.710938 1.078125 -5.175781 1.078125 -5.71875 C 1.078125 -6.28125 1.207031 -6.769531 1.46875 -7.1875 C 1.726562 -7.613281 2.101562 -7.941406 2.59375 -8.171875 C 3.082031 -8.410156 3.671875 -8.53125 4.359375 -8.53125 C 5.054688 -8.53125 5.613281 -8.410156 6.03125 -8.171875 C 6.289062 -8.546875 6.441406 -8.976562 6.484375 -9.46875 L 6.640625 -9.5625 L 8.15625 -9.1875 C 8.101562 -8.789062 7.984375 -8.457031 7.796875 -8.1875 C 7.609375 -7.914062 7.320312 -7.675781 6.9375 -7.46875 L 6.9375 -7.296875 C 7.40625 -6.878906 7.640625 -6.300781 7.640625 -5.5625 C 7.640625 -5.039062 7.507812 -4.570312 7.25 -4.15625 C 6.988281 -3.75 6.609375 -3.425781 6.109375 -3.1875 C 5.617188 -2.957031 5.035156 -2.84375 4.359375 -2.84375 L 4.046875 -2.84375 C 3.847656 -2.851562 3.707031 -2.859375 3.625 -2.859375 C 3.425781 -2.859375 3.269531 -2.804688 3.15625 -2.703125 C 3.050781 -2.597656 3 -2.46875 3 -2.3125 C 3 -2.132812 3.070312 -1.992188 3.21875 -1.890625 C 3.363281 -1.796875 3.570312 -1.742188 3.84375 -1.734375 L 5.71875 -1.65625 C 7.570312 -1.601562 8.5 -0.804688 8.5 0.734375 C 8.5 1.273438 8.359375 1.753906 8.078125 2.171875 C 7.804688 2.597656 7.359375 2.929688 6.734375 3.171875 C 6.117188 3.421875 5.320312 3.546875 4.34375 3.546875 Z M 4.359375 -4.3125 C 4.765625 -4.3125 5.082031 -4.429688 5.3125 -4.671875 C 5.539062 -4.910156 5.65625 -5.25 5.65625 -5.6875 C 5.65625 -6.125 5.539062 -6.457031 5.3125 -6.6875 C 5.082031 -6.925781 4.765625 -7.046875 4.359375 -7.046875 C 3.953125 -7.046875 3.632812 -6.925781 3.40625 -6.6875 C 3.1875 -6.457031 3.078125 -6.125 3.078125 -5.6875 C 3.078125 -5.238281 3.1875 -4.894531 3.40625 -4.65625 C 3.632812 -4.425781 3.953125 -4.3125 4.359375 -4.3125 Z M 4.34375 2.03125 C 5.0625 2.03125 5.582031 1.925781 5.90625 1.71875 C 6.238281 1.519531 6.40625 1.257812 6.40625 0.9375 C 6.40625 0.664062 6.316406 0.46875 6.140625 0.34375 C 5.972656 0.226562 5.710938 0.164062 5.359375 0.15625 L 3.703125 0.078125 C 3.640625 0.078125 3.582031 0.0703125 3.53125 0.0625 C 3.488281 0.0625 3.445312 0.0625 3.40625 0.0625 C 3.050781 0.0625 2.78125 0.132812 2.59375 0.28125 C 2.40625 0.4375 2.3125 0.648438 2.3125 0.921875 C 2.3125 1.273438 2.476562 1.546875 2.8125 1.734375 C 3.15625 1.929688 3.664062 2.03125 4.34375 2.03125 Z M 4.34375 2.03125 "/></g></g></g><g fill="#ffffff" fill-opacity="1"><g transform="translate(102.023391, 167.941355)"><g><path d="M 8.28125 -3.71875 L 2.890625 -3.71875 C 2.953125 -2.988281 3.160156 -2.457031 3.515625 -2.125 C 3.867188 -1.789062 4.351562 -1.625 4.96875 -1.625 C 5.445312 -1.625 5.832031 -1.710938 6.125 -1.890625 C 6.425781 -2.066406 6.671875 -2.335938 6.859375 -2.703125 L 7.015625 -2.703125 L 8.40625 -1.8125 C 8.132812 -1.226562 7.722656 -0.753906 7.171875 -0.390625 C 6.617188 -0.0234375 5.882812 0.15625 4.96875 0.15625 C 4.101562 0.15625 3.351562 -0.00390625 2.71875 -0.328125 C 2.09375 -0.660156 1.609375 -1.148438 1.265625 -1.796875 C 0.921875 -2.453125 0.75 -3.25 0.75 -4.1875 C 0.75 -5.132812 0.925781 -5.929688 1.28125 -6.578125 C 1.644531 -7.234375 2.132812 -7.722656 2.75 -8.046875 C 3.363281 -8.367188 4.050781 -8.53125 4.8125 -8.53125 C 6 -8.53125 6.90625 -8.21875 7.53125 -7.59375 C 8.164062 -6.96875 8.484375 -6.046875 8.484375 -4.828125 C 8.484375 -4.390625 8.46875 -4.046875 8.4375 -3.796875 Z M 6.46875 -5.078125 C 6.445312 -5.710938 6.296875 -6.175781 6.015625 -6.46875 C 5.742188 -6.757812 5.34375 -6.90625 4.8125 -6.90625 C 3.75 -6.90625 3.125 -6.296875 2.9375 -5.078125 Z M 6.46875 -5.078125 "/></g></g></g><g fill="#ffffff" fill-opacity="1"><g transform="translate(111.124254, 167.941355)"><g/></g></g><g fill="#ffffff" fill-opacity="1"><g transform="translate(114.790409, 167.941355)"><g><path d="M 10.65625 0 L 8.34375 0 L 7.5 -2.5625 L 3.25 -2.5625 L 2.421875 0 L 0.171875 0 L 4 -11.09375 L 6.8125 -11.09375 Z M 5.28125 -8.78125 L 3.84375 -4.40625 L 6.90625 -4.40625 L 5.46875 -8.78125 Z M 5.28125 -8.78125 "/></g></g></g><g fill="#ffffff" fill-opacity="1"><g transform="translate(125.606691, 167.941355)"><g><path d="M 5.765625 0 L 3.25 0 L 0.15625 -8.375 L 2.359375 -8.375 L 4.4375 -2.40625 L 4.609375 -2.40625 L 6.703125 -8.375 L 8.84375 -8.375 Z M 5.765625 0 "/></g></g></g><g fill="#ffffff" fill-opacity="1"><g transform="translate(134.608877, 167.941355)"><g><path d="M 3.265625 0.15625 C 2.722656 0.15625 2.253906 0.0546875 1.859375 -0.140625 C 1.472656 -0.335938 1.171875 -0.625 0.953125 -1 C 0.742188 -1.382812 0.640625 -1.847656 0.640625 -2.390625 C 0.640625 -2.878906 0.742188 -3.289062 0.953125 -3.625 C 1.171875 -3.96875 1.5 -4.242188 1.9375 -4.453125 C 2.382812 -4.671875 2.96875 -4.835938 3.6875 -4.953125 C 4.1875 -5.035156 4.566406 -5.125 4.828125 -5.21875 C 5.085938 -5.3125 5.265625 -5.421875 5.359375 -5.546875 C 5.453125 -5.671875 5.5 -5.828125 5.5 -6.015625 C 5.5 -6.285156 5.40625 -6.488281 5.21875 -6.625 C 5.03125 -6.769531 4.71875 -6.84375 4.28125 -6.84375 C 3.8125 -6.84375 3.367188 -6.738281 2.953125 -6.53125 C 2.535156 -6.320312 2.171875 -6.046875 1.859375 -5.703125 L 1.703125 -5.703125 L 0.828125 -7.03125 C 1.253906 -7.507812 1.769531 -7.878906 2.375 -8.140625 C 2.988281 -8.398438 3.660156 -8.53125 4.390625 -8.53125 C 5.492188 -8.53125 6.289062 -8.296875 6.78125 -7.828125 C 7.28125 -7.359375 7.53125 -6.691406 7.53125 -5.828125 L 7.53125 -2.1875 C 7.53125 -1.8125 7.695312 -1.625 8.03125 -1.625 C 8.15625 -1.625 8.28125 -1.644531 8.40625 -1.6875 L 8.515625 -1.65625 L 8.65625 -0.203125 C 8.539062 -0.117188 8.378906 -0.0507812 8.171875 0 C 7.960938 0.0390625 7.738281 0.0625 7.5 0.0625 C 6.988281 0.0625 6.59375 -0.03125 6.3125 -0.21875 C 6.03125 -0.414062 5.832031 -0.71875 5.71875 -1.125 L 5.5625 -1.140625 C 5.144531 -0.273438 4.378906 0.15625 3.265625 0.15625 Z M 3.9375 -1.40625 C 4.414062 -1.40625 4.800781 -1.566406 5.09375 -1.890625 C 5.382812 -2.222656 5.53125 -2.679688 5.53125 -3.265625 L 5.53125 -4.109375 L 5.390625 -4.140625 C 5.265625 -4.046875 5.097656 -3.960938 4.890625 -3.890625 C 4.679688 -3.816406 4.390625 -3.75 4.015625 -3.6875 C 3.554688 -3.613281 3.222656 -3.484375 3.015625 -3.296875 C 2.816406 -3.109375 2.71875 -2.847656 2.71875 -2.515625 C 2.71875 -2.148438 2.820312 -1.875 3.03125 -1.6875 C 3.25 -1.5 3.550781 -1.40625 3.9375 -1.40625 Z M 3.9375 -1.40625 "/></g></g></g><g fill="#ffffff" fill-opacity="1"><g transform="translate(143.436481, 167.941355)"><g><path d="M 2.25 -9.375 C 1.875 -9.375 1.566406 -9.488281 1.328125 -9.71875 C 1.085938 -9.945312 0.96875 -10.242188 0.96875 -10.609375 C 0.96875 -10.972656 1.085938 -11.269531 1.328125 -11.5 C 1.566406 -11.726562 1.875 -11.84375 2.25 -11.84375 C 2.507812 -11.84375 2.734375 -11.789062 2.921875 -11.6875 C 3.117188 -11.582031 3.269531 -11.4375 3.375 -11.25 C 3.488281 -11.0625 3.546875 -10.847656 3.546875 -10.609375 C 3.546875 -10.367188 3.488281 -10.15625 3.375 -9.96875 C 3.269531 -9.78125 3.117188 -9.632812 2.921875 -9.53125 C 2.734375 -9.425781 2.507812 -9.375 2.25 -9.375 Z M 1.203125 0 L 1.203125 -8.375 L 3.3125 -8.375 L 3.3125 0 Z M 1.203125 0 "/></g></g></g><g fill="#ffffff" fill-opacity="1"><g transform="translate(147.945157, 167.941355)"><g><path d="M 3.484375 0.15625 C 2.722656 0.15625 2.144531 -0.046875 1.75 -0.453125 C 1.351562 -0.859375 1.15625 -1.476562 1.15625 -2.3125 L 1.15625 -11.734375 L 3.25 -11.734375 L 3.25 -2.390625 C 3.25 -1.878906 3.460938 -1.625 3.890625 -1.625 C 4.015625 -1.625 4.144531 -1.644531 4.28125 -1.6875 L 4.390625 -1.65625 L 4.578125 -0.03125 C 4.460938 0.0195312 4.304688 0.0625 4.109375 0.09375 C 3.921875 0.132812 3.710938 0.15625 3.484375 0.15625 Z M 3.484375 0.15625 "/></g></g></g><g fill="#ffffff" fill-opacity="1"><g transform="translate(152.757449, 167.941355)"><g><path d="M 3.265625 0.15625 C 2.722656 0.15625 2.253906 0.0546875 1.859375 -0.140625 C 1.472656 -0.335938 1.171875 -0.625 0.953125 -1 C 0.742188 -1.382812 0.640625 -1.847656 0.640625 -2.390625 C 0.640625 -2.878906 0.742188 -3.289062 0.953125 -3.625 C 1.171875 -3.96875 1.5 -4.242188 1.9375 -4.453125 C 2.382812 -4.671875 2.96875 -4.835938 3.6875 -4.953125 C 4.1875 -5.035156 4.566406 -5.125 4.828125 -5.21875 C 5.085938 -5.3125 5.265625 -5.421875 5.359375 -5.546875 C 5.453125 -5.671875 5.5 -5.828125 5.5 -6.015625 C 5.5 -6.285156 5.40625 -6.488281 5.21875 -6.625 C 5.03125 -6.769531 4.71875 -6.84375 4.28125 -6.84375 C 3.8125 -6.84375 3.367188 -6.738281 2.953125 -6.53125 C 2.535156 -6.320312 2.171875 -6.046875 1.859375 -5.703125 L 1.703125 -5.703125 L 0.828125 -7.03125 C 1.253906 -7.507812 1.769531 -7.878906 2.375 -8.140625 C 2.988281 -8.398438 3.660156 -8.53125 4.390625 -8.53125 C 5.492188 -8.53125 6.289062 -8.296875 6.78125 -7.828125 C 7.28125 -7.359375 7.53125 -6.691406 7.53125 -5.828125 L 7.53125 -2.1875 C 7.53125 -1.8125 7.695312 -1.625 8.03125 -1.625 C 8.15625 -1.625 8.28125 -1.644531 8.40625 -1.6875 L 8.515625 -1.65625 L 8.65625 -0.203125 C 8.539062 -0.117188 8.378906 -0.0507812 8.171875 0 C 7.960938 0.0390625 7.738281 0.0625 7.5 0.0625 C 6.988281 0.0625 6.59375 -0.03125 6.3125 -0.21875 C 6.03125 -0.414062 5.832031 -0.71875 5.71875 -1.125 L 5.5625 -1.140625 C 5.144531 -0.273438 4.378906 0.15625 3.265625 0.15625 Z M 3.9375 -1.40625 C 4.414062 -1.40625 4.800781 -1.566406 5.09375 -1.890625 C 5.382812 -2.222656 5.53125 -2.679688 5.53125 -3.265625 L 5.53125 -4.109375 L 5.390625 -4.140625 C 5.265625 -4.046875 5.097656 -3.960938 4.890625 -3.890625 C 4.679688 -3.816406 4.390625 -3.75 4.015625 -3.6875 C 3.554688 -3.613281 3.222656 -3.484375 3.015625 -3.296875 C 2.816406 -3.109375 2.71875 -2.847656 2.71875 -2.515625 C 2.71875 -2.148438 2.820312 -1.875 3.03125 -1.6875 C 3.25 -1.5 3.550781 -1.40625 3.9375 -1.40625 Z M 3.9375 -1.40625 "/></g></g></g><g fill="#ffffff" fill-opacity="1"><g transform="translate(161.585059, 167.941355)"><g><path d="M 5.859375 0.15625 C 4.785156 0.15625 3.988281 -0.242188 3.46875 -1.046875 L 3.3125 -1.015625 L 3.3125 0 L 1.203125 0 L 1.203125 -11.734375 L 3.3125 -11.734375 L 3.3125 -7.390625 L 3.46875 -7.359375 C 3.757812 -7.753906 4.097656 -8.046875 4.484375 -8.234375 C 4.878906 -8.429688 5.347656 -8.53125 5.890625 -8.53125 C 6.578125 -8.53125 7.171875 -8.367188 7.671875 -8.046875 C 8.179688 -7.734375 8.578125 -7.25 8.859375 -6.59375 C 9.140625 -5.945312 9.28125 -5.144531 9.28125 -4.1875 C 9.28125 -3.226562 9.132812 -2.421875 8.84375 -1.765625 C 8.550781 -1.117188 8.144531 -0.632812 7.625 -0.3125 C 7.113281 0 6.523438 0.15625 5.859375 0.15625 Z M 5.21875 -1.625 C 5.832031 -1.625 6.300781 -1.828125 6.625 -2.234375 C 6.945312 -2.648438 7.109375 -3.300781 7.109375 -4.1875 C 7.109375 -5.070312 6.945312 -5.71875 6.625 -6.125 C 6.300781 -6.539062 5.832031 -6.75 5.21875 -6.75 C 4.625 -6.75 4.148438 -6.535156 3.796875 -6.109375 C 3.453125 -5.679688 3.28125 -5.039062 3.28125 -4.1875 C 3.28125 -3.320312 3.453125 -2.675781 3.796875 -2.25 C 4.148438 -1.832031 4.625 -1.625 5.21875 -1.625 Z M 5.21875 -1.625 "/></g></g></g><g fill="#ffffff" fill-opacity="1"><g transform="translate(171.611942, 167.941355)"><g><path d="M 3.484375 0.15625 C 2.722656 0.15625 2.144531 -0.046875 1.75 -0.453125 C 1.351562 -0.859375 1.15625 -1.476562 1.15625 -2.3125 L 1.15625 -11.734375 L 3.25 -11.734375 L 3.25 -2.390625 C 3.25 -1.878906 3.460938 -1.625 3.890625 -1.625 C 4.015625 -1.625 4.144531 -1.644531 4.28125 -1.6875 L 4.390625 -1.65625 L 4.578125 -0.03125 C 4.460938 0.0195312 4.304688 0.0625 4.109375 0.09375 C 3.921875 0.132812 3.710938 0.15625 3.484375 0.15625 Z M 3.484375 0.15625 "/></g></g></g><g fill="#ffffff" fill-opacity="1"><g transform="translate(176.424247, 167.941355)"><g><path d="M 8.28125 -3.71875 L 2.890625 -3.71875 C 2.953125 -2.988281 3.160156 -2.457031 3.515625 -2.125 C 3.867188 -1.789062 4.351562 -1.625 4.96875 -1.625 C 5.445312 -1.625 5.832031 -1.710938 6.125 -1.890625 C 6.425781 -2.066406 6.671875 -2.335938 6.859375 -2.703125 L 7.015625 -2.703125 L 8.40625 -1.8125 C 8.132812 -1.226562 7.722656 -0.753906 7.171875 -0.390625 C 6.617188 -0.0234375 5.882812 0.15625 4.96875 0.15625 C 4.101562 0.15625 3.351562 -0.00390625 2.71875 -0.328125 C 2.09375 -0.660156 1.609375 -1.148438 1.265625 -1.796875 C 0.921875 -2.453125 0.75 -3.25 0.75 -4.1875 C 0.75 -5.132812 0.925781 -5.929688 1.28125 -6.578125 C 1.644531 -7.234375 2.132812 -7.722656 2.75 -8.046875 C 3.363281 -8.367188 4.050781 -8.53125 4.8125 -8.53125 C 6 -8.53125 6.90625 -8.21875 7.53125 -7.59375 C 8.164062 -6.96875 8.484375 -6.046875 8.484375 -4.828125 C 8.484375 -4.390625 8.46875 -4.046875 8.4375 -3.796875 Z M 6.46875 -5.078125 C 6.445312 -5.710938 6.296875 -6.175781 6.015625 -6.46875 C 5.742188 -6.757812 5.34375 -6.90625 4.8125 -6.90625 C 3.75 -6.90625 3.125 -6.296875 2.9375 -5.078125 Z M 6.46875 -5.078125 "/></g></g></g></svg>