<svg xmlns="http://www.w3.org/2000/svg" xmlns:xlink="http://www.w3.org/1999/xlink" width="40" zoomAndPan="magnify" viewBox="0 0 30 30" height="40" preserveAspectRatio="xMidYMid meet" version="1.0"><defs><clipPath id="5801765d8c"><path d="M 1.730469 1.394531 L 28.671875 1.394531 L 28.671875 28.335938 L 1.730469 28.335938 Z M 1.730469 1.394531 " clip-rule="nonzero"/></clipPath><clipPath id="5549e2ceb8"><path d="M 15.203125 1.394531 C 7.761719 1.394531 1.730469 7.425781 1.730469 14.867188 C 1.730469 22.304688 7.761719 28.335938 15.203125 28.335938 C 22.644531 28.335938 28.671875 22.304688 28.671875 14.867188 C 28.671875 7.425781 22.644531 1.394531 15.203125 1.394531 " clip-rule="nonzero"/></clipPath><clipPath id="609b9065f2"><path d="M 9 13 L 21 13 L 21 22.570312 L 9 22.570312 Z M 9 13 " clip-rule="nonzero"/></clipPath><clipPath id="6e2505e07c"><path d="M 15 7.121094 L 20 7.121094 L 20 14 L 15 14 Z M 15 7.121094 " clip-rule="nonzero"/></clipPath><clipPath id="8231746108"><path d="M 19 10 L 23.3125 10 L 23.3125 17 L 19 17 Z M 19 10 " clip-rule="nonzero"/></clipPath><clipPath id="cad2c36857"><path d="M 10 7.121094 L 15 7.121094 L 15 14 L 10 14 Z M 10 7.121094 " clip-rule="nonzero"/></clipPath><clipPath id="ba62fd47d5"><path d="M 7.148438 10 L 12 10 L 12 17 L 7.148438 17 Z M 7.148438 10 " clip-rule="nonzero"/></clipPath></defs><g clip-path="url(#5801765d8c)"><g clip-path="url(#5549e2ceb8)"><path fill="#eb6563" d="M 1.730469 1.394531 L 28.671875 1.394531 L 28.671875 28.335938 L 1.730469 28.335938 Z M 1.730469 1.394531 " fill-opacity="1" fill-rule="nonzero"/></g></g><g clip-path="url(#609b9065f2)"><path fill="#ffffff" d="M 12.882812 22.507812 C 12.757812 22.507812 12.632812 22.507812 12.507812 22.488281 C 10.953125 22.320312 9.707031 21.0625 9.558594 19.492188 C 9.457031 18.417969 9.890625 17.34375 10.722656 16.640625 L 12.445312 14.847656 C 13.175781 14.082031 14.152344 13.667969 15.1875 13.667969 C 16.226562 13.667969 17.203125 14.082031 17.929688 14.847656 L 19.738281 16.726562 C 20.527344 17.449219 20.921875 18.460938 20.796875 19.535156 C 20.632812 21.082031 19.386719 22.320312 17.847656 22.488281 C 17.078125 22.570312 16.332031 22.402344 15.6875 21.992188 C 15.375 21.785156 14.980469 21.785156 14.667969 21.992188 C 14.128906 22.320312 13.527344 22.507812 12.882812 22.507812 Z M 11.035156 16.929688 C 11.035156 16.953125 11.015625 16.953125 11.015625 16.953125 C 10.285156 17.570312 9.890625 18.5 9.996094 19.449219 C 10.121094 20.8125 11.199219 21.910156 12.570312 22.054688 C 13.238281 22.136719 13.902344 21.96875 14.460938 21.621094 C 14.898438 21.332031 15.480469 21.332031 15.9375 21.621094 C 16.496094 21.96875 17.164062 22.136719 17.828125 22.054688 C 19.175781 21.910156 20.277344 20.8125 20.402344 19.472656 C 20.507812 18.542969 20.152344 17.632812 19.445312 16.992188 C 19.425781 16.992188 19.425781 16.972656 19.425781 16.953125 L 17.640625 15.09375 C 16.996094 14.433594 16.125 14.0625 15.1875 14.0625 C 14.253906 14.0625 13.382812 14.433594 12.738281 15.113281 Z M 11.035156 16.929688 " fill-opacity="1" fill-rule="nonzero"/></g><g clip-path="url(#6e2505e07c)"><path fill="#ffffff" d="M 17.015625 13.339844 C 16.914062 13.339844 16.808594 13.316406 16.707031 13.296875 C 16.207031 13.152344 15.855469 12.699219 15.6875 11.996094 C 15.542969 11.355469 15.582031 10.550781 15.8125 9.765625 C 16.039062 8.980469 16.433594 8.300781 16.914062 7.824219 C 17.410156 7.328125 17.972656 7.121094 18.472656 7.265625 C 18.96875 7.410156 19.324219 7.867188 19.488281 8.566406 C 19.632812 9.207031 19.59375 10.011719 19.363281 10.796875 C 19.136719 11.582031 18.742188 12.265625 18.261719 12.738281 C 17.847656 13.132812 17.433594 13.339844 17.015625 13.339844 Z M 18.136719 7.640625 C 17.847656 7.640625 17.515625 7.804688 17.203125 8.113281 C 16.769531 8.527344 16.433594 9.167969 16.226562 9.890625 C 16.019531 10.613281 15.976562 11.316406 16.101562 11.914062 C 16.226562 12.449219 16.476562 12.800781 16.828125 12.90625 C 17.183594 13.007812 17.578125 12.84375 17.972656 12.449219 C 18.410156 12.039062 18.742188 11.398438 18.949219 10.675781 C 19.15625 9.953125 19.199219 9.25 19.074219 8.652344 C 18.949219 8.113281 18.699219 7.761719 18.347656 7.660156 C 18.261719 7.660156 18.199219 7.640625 18.136719 7.640625 Z M 18.136719 7.640625 " fill-opacity="1" fill-rule="nonzero"/></g><g clip-path="url(#8231746108)"><path fill="#ffffff" d="M 20.695312 16.558594 C 20.589844 16.558594 20.484375 16.539062 20.382812 16.519531 C 19.882812 16.375 19.53125 15.917969 19.363281 15.21875 C 19.21875 14.578125 19.261719 13.773438 19.488281 12.988281 C 19.988281 11.292969 21.148438 10.199219 22.125 10.488281 C 22.625 10.632812 22.976562 11.085938 23.144531 11.789062 C 23.289062 12.429688 23.25 13.234375 23.019531 14.019531 C 22.792969 14.804688 22.398438 15.484375 21.917969 15.960938 C 21.546875 16.351562 21.109375 16.558594 20.695312 16.558594 Z M 21.816406 10.859375 C 21.109375 10.859375 20.257812 11.808594 19.882812 13.109375 C 19.675781 13.835938 19.632812 14.535156 19.757812 15.136719 C 19.882812 15.671875 20.132812 16.023438 20.484375 16.125 C 20.839844 16.230469 21.234375 16.0625 21.628906 15.671875 C 22.0625 15.257812 22.398438 14.617188 22.605469 13.894531 C 22.8125 13.171875 22.855469 12.472656 22.730469 11.871094 C 22.605469 11.335938 22.355469 10.984375 22.003906 10.882812 C 21.960938 10.882812 21.878906 10.859375 21.816406 10.859375 Z M 21.816406 10.859375 " fill-opacity="1" fill-rule="nonzero"/></g><g clip-path="url(#cad2c36857)"><path fill="#ffffff" d="M 13.445312 13.339844 C 13.027344 13.339844 12.613281 13.132812 12.21875 12.738281 C 11.742188 12.265625 11.347656 11.582031 11.117188 10.796875 C 10.890625 10.011719 10.847656 9.230469 10.992188 8.566406 C 11.160156 7.867188 11.511719 7.410156 12.011719 7.265625 C 12.507812 7.121094 13.050781 7.328125 13.570312 7.824219 C 14.046875 8.300781 14.441406 8.980469 14.667969 9.765625 C 14.898438 10.550781 14.941406 11.335938 14.792969 11.996094 C 14.628906 12.699219 14.273438 13.152344 13.777344 13.296875 C 13.652344 13.339844 13.546875 13.339844 13.445312 13.339844 Z M 12.324219 7.640625 C 12.261719 7.640625 12.175781 7.640625 12.113281 7.660156 C 11.761719 7.761719 11.511719 8.113281 11.386719 8.652344 C 11.261719 9.230469 11.304688 9.953125 11.511719 10.675781 C 11.71875 11.398438 12.074219 12.015625 12.488281 12.449219 C 12.882812 12.84375 13.296875 13.007812 13.632812 12.90625 C 13.984375 12.800781 14.234375 12.449219 14.359375 11.914062 C 14.484375 11.335938 14.441406 10.613281 14.234375 9.890625 C 14.027344 9.167969 13.671875 8.546875 13.257812 8.113281 C 12.945312 7.804688 12.632812 7.640625 12.324219 7.640625 Z M 12.324219 7.640625 " fill-opacity="1" fill-rule="nonzero"/></g><g clip-path="url(#ba62fd47d5)"><path fill="#ffffff" d="M 9.769531 16.558594 C 9.351562 16.558594 8.9375 16.351562 8.542969 15.960938 C 8.0625 15.484375 7.667969 14.804688 7.441406 14.019531 C 7.210938 13.234375 7.171875 12.449219 7.316406 11.789062 C 7.484375 11.085938 7.835938 10.632812 8.335938 10.488281 C 9.332031 10.199219 10.496094 11.292969 10.972656 12.988281 C 11.199219 13.773438 11.242188 14.558594 11.097656 15.21875 C 10.929688 15.917969 10.578125 16.375 10.078125 16.519531 C 9.976562 16.539062 9.871094 16.558594 9.769531 16.558594 Z M 8.644531 10.859375 C 8.582031 10.859375 8.5 10.859375 8.4375 10.882812 C 8.085938 10.984375 7.835938 11.335938 7.710938 11.871094 C 7.585938 12.449219 7.628906 13.171875 7.835938 13.894531 C 8.042969 14.617188 8.398438 15.238281 8.8125 15.671875 C 9.207031 16.0625 9.621094 16.230469 9.953125 16.125 C 10.308594 16.023438 10.558594 15.671875 10.679688 15.136719 C 10.804688 14.558594 10.765625 13.835938 10.558594 13.109375 C 10.203125 11.832031 9.351562 10.859375 8.644531 10.859375 Z M 8.644531 10.859375 " fill-opacity="1" fill-rule="nonzero"/></g></svg>